<svg width="20" height="20" viewBox="0 0 20 20" fill="none" xmlns="http://www.w3.org/2000/svg">
<path d="M7.8 7.8L3.97 16.03L12.2 12.2L16.03 3.97L7.8 7.8ZM11.08 10.77C10.87 11.06 10.57 11.25 10.22 11.31C10.15 11.32 10.07 11.33 10 11.33C9.72 11.33 9.46 11.25 9.23 11.08C8.94 10.87 8.75 10.57 8.69 10.22C8.63 9.87 8.71 9.51 8.92 9.23C9.13 8.94 9.43 8.75 9.78 8.69C10.13 8.63 10.48 8.71 10.77 8.92C11.06 9.13 11.25 9.43 11.31 9.78C11.37 10.13 11.29 10.48 11.08 10.77ZM10 1C14.96 1 19 5.04 19 10C19 14.96 14.96 19 10 19C5.04 19 1 14.96 1 10C1 5.04 5.04 1 10 1ZM10 0C4.48 0 0 4.48 0 10C0 15.52 4.48 20 10 20C15.52 20 20 15.52 20 10C20 4.48 15.52 0 10 0Z" fill="white"/>
</svg>
