<svg width="21" height="20" viewBox="0 0 21 20" fill="none" xmlns="http://www.w3.org/2000/svg">
<path d="M13.97 14.95L8.99996 11.87V5H11V10.76L15.03 13.25L13.97 14.95ZM21 10C21 15.51 16.51 20 11 20C5.48996 20 0.999961 15.51 0.999961 10H1.99996C1.99996 14.96 6.03996 19 11 19C15.96 19 20 14.96 20 10C20 5.04 15.96 1 11 1C7.80996 1 4.91996 2.64 3.27996 5.38C3.16996 5.56 3.05996 5.75 2.96996 5.94C2.95996 5.96 2.94996 5.98 2.93996 6H6.99996V7H0.959961V1H1.95996V5.74C1.99996 5.65 2.02996 5.57 2.06996 5.49C2.17996 5.27 2.29996 5.07 2.41996 4.86C4.21996 1.86 7.50996 0 11 0C16.51 0 21 4.49 21 10Z" fill="white"/>
</svg>
